<svg width="24" height="24" viewBox="0 0 24 24" fill="none" xmlns="http://www.w3.org/2000/svg">
<path d="M7.50117 19.917L7.47117 21H0.472168L0.501168 19.973C0.685168 13.355 4.23717 10.996 7.50117 10.996C8.46417 10.996 9.45117 11.208 10.3712 11.668C9.92717 12.146 9.52017 12.698 9.15917 13.324C8.65217 13.12 8.10517 12.995 7.50117 12.995C4.73417 12.995 2.93117 15.218 2.56317 18.999H7.56017C7.53717 19.301 7.51017 19.599 7.50117 19.917ZM23.4992 19.973L23.5282 21H9.47217L9.50117 19.973C9.68517 13.355 13.2372 10.996 16.5012 10.996C19.7652 10.996 23.3172 13.354 23.5012 19.973H23.4992ZM21.4372 19C21.0702 15.219 19.2672 12.996 16.4992 12.996C13.7312 12.996 11.9292 15.219 11.5612 19H21.4372ZM16.4992 10C15.7002 10 14.9722 9.721 14.3832 9.27C13.5472 8.63 12.9992 7.632 12.9992 6.5C12.9992 4.57 14.5662 3 16.4992 3C18.4322 3 19.9992 4.57 19.9992 6.5C19.9992 7.632 19.4512 8.63 18.6152 9.27C18.0262 9.721 17.2982 10 16.4992 10ZM14.9992 6.5C14.9992 7.327 15.6722 8 16.4992 8C17.3262 8 17.9992 7.327 17.9992 6.5C17.9992 5.673 17.3262 5 16.4992 5C15.6722 5 14.9992 5.673 14.9992 6.5ZM7.50017 3C9.43317 3 11.0002 4.57 11.0002 6.5C11.0002 8.43 9.43317 10 7.50017 10C5.56717 10 4.00017 8.43 4.00017 6.5C4.00017 4.57 5.56717 3 7.50017 3ZM7.50017 5C6.67317 5 6.00017 5.673 6.00017 6.5C6.00017 7.327 6.67317 8 7.50017 8C8.32717 8 9.00017 7.327 9.00017 6.5C9.00017 5.673 8.32717 5 7.50017 5Z" fill="black"/>
</svg>
