<svg width="24" height="24" viewBox="0 0 24 24" fill="none" xmlns="http://www.w3.org/2000/svg">
<path d="M16.6968 5.50015C15.4748 5.44015 14.0178 6.01015 12.8068 7.66015L12.0018 8.75015L11.1958 7.66015C9.98382 6.01015 8.52582 5.44015 7.30382 5.50015C6.06082 5.57015 4.95482 6.28015 4.39382 7.41015C3.84182 8.53015 3.76082 10.1901 4.87282 12.2301C5.94682 14.2001 8.12982 16.5001 12.0018 18.8401C15.8718 16.5001 18.0538 14.2001 19.1278 12.2301C20.2388 10.1901 20.1578 8.53015 19.6048 7.41015C19.0438 6.28015 17.9388 5.57015 16.6968 5.50015ZM20.8838 13.1901C19.5328 15.6701 16.8828 18.3101 12.5048 20.8601L12.0018 21.1601L11.4978 20.8601C7.11882 18.3101 4.46882 15.6701 3.11582 13.1901C1.75582 10.6901 1.70582 8.33015 2.60182 6.52015C3.48882 4.73015 5.24882 3.61015 7.20282 3.51015C8.85382 3.42015 10.5708 4.07015 12.0008 5.52015C13.4298 4.07015 15.1468 3.42015 16.7968 3.51015C18.7508 3.61015 20.5108 4.73015 21.3978 6.52015C22.2938 8.33015 22.2438 10.6901 20.8838 13.1901Z" fill="black"/>
</svg>
